<svg version="1.1" id="Layer_1" xmlns="http://www.w3.org/2000/svg" xmlns:xlink="http://www.w3.org/1999/xlink" x="0px" y="0px"
	 width="100%" viewBox="0 0 801 801" enable-background="new 0 0 801 801" xml:space="preserve">
<path fill="#010101" opacity="1.000000" stroke="none" 
	d="
M386.000000,802.000000 
	C384.611115,802.000000 383.222198,802.000000 381.262390,801.603271 
	C363.695404,799.183838 346.537048,798.051880 329.730560,794.988892 
	C242.995911,779.181641 169.252518,738.900452 109.208046,674.497803 
	C45.790287,606.477051 10.351722,525.720215 2.776546,432.883667 
	C2.424526,428.569519 1.602910,424.293671 1.000000,420.000000 
	C1.000000,407.979095 1.000000,395.958221 1.396838,383.306885 
	C3.488722,367.147949 4.448662,351.497589 6.999959,336.111084 
	C21.842987,246.595123 62.599522,170.628250 128.877075,108.860733 
	C196.380661,45.950603 276.556702,10.713344 368.610596,2.775136 
	C372.760559,2.417265 376.871094,1.602144 381.000000,0.999999 
	C382.388885,1.000000 383.777802,1.000000 385.775879,1.392135 
	C394.762238,1.856095 403.139496,1.978265 411.516327,1.953008 
	C413.011841,1.948499 414.505493,1.333249 416.000000,1.000000 
	C417.066681,1.000000 418.133331,1.000000 419.763397,1.402584 
	C440.785095,4.300947 461.523041,5.426249 481.652649,9.533150 
	C562.611145,26.050552 632.159302,64.097740 689.433105,123.734177 
	C754.793884,191.791275 791.657166,273.060760 800.194092,367.110168 
	C800.585815,371.425873 801.388672,375.704254 802.000000,380.000000 
	C802.000000,384.024536 802.000000,388.049103 801.680847,392.810486 
	C801.574463,399.031525 801.787231,404.515778 802.000000,410.000000 
	C802.000000,414.024536 802.000000,418.049103 801.618774,422.724335 
	C798.995605,460.584229 792.320984,496.956757 779.909485,532.138611 
	C749.490295,618.365234 696.095581,686.805115 619.656006,736.953979 
	C563.546692,773.764893 501.820740,794.697205 434.891937,800.185852 
	C429.911865,800.594238 424.963226,801.386292 420.000000,802.000000 
	C418.933319,802.000000 417.866669,802.000000 416.175049,801.632202 
	C406.520020,801.174316 397.489929,801.057678 388.459625,801.038818 
	C387.640411,801.037109 386.819885,801.664612 386.000000,802.000000 
M358.865082,164.338791 
	C467.627838,148.576279 550.463318,189.307907 611.164124,279.978088 
	C612.251587,279.409088 613.868103,278.633545 615.417114,277.740875 
	C623.784302,272.919220 632.237305,268.232239 640.417236,263.110077 
	C642.408875,261.862915 644.208618,259.360352 644.862122,257.081085 
	C648.758667,243.489883 652.172363,229.760559 656.036011,216.159378 
	C656.981201,212.831909 656.442810,210.714493 653.995605,208.289780 
	C634.346252,188.821228 614.742065,169.304672 595.367371,149.564056 
	C592.424438,146.565536 589.836304,146.279358 586.221191,147.278351 
	C572.747925,151.001495 559.253479,154.655380 545.704346,158.088013 
	C543.681580,158.600449 540.946838,158.469696 539.179016,157.488190 
	C519.733337,146.691650 499.330658,138.293655 478.005859,132.004639 
	C475.770111,131.345276 473.399902,129.354736 472.181183,127.327171 
	C464.891998,115.200317 457.829865,102.933235 450.914185,90.588486 
	C449.307739,87.720871 447.470490,86.763710 444.224884,86.777710 
	C416.229370,86.898415 388.232758,86.897995 360.237457,86.748947 
	C356.768158,86.730476 354.823883,87.889664 353.162018,90.851746 
	C346.399231,102.905678 339.579803,114.935165 332.398865,126.741096 
	C330.940216,129.139252 328.097321,131.444290 325.429749,132.239502 
	C304.601410,138.448380 284.678558,146.707077 265.596588,157.107269 
	C263.552185,158.221497 260.481628,158.518005 258.195923,157.950333 
	C244.149139,154.461685 230.217773,150.508148 216.170685,147.020905 
	C214.373718,146.574799 211.481155,147.282089 210.186554,148.559845 
	C189.906418,168.576294 169.764999,188.734406 149.756958,209.022934 
	C148.458649,210.339447 147.621201,213.200653 148.062851,214.970673 
	C151.646240,229.331802 155.559494,243.611267 159.457123,257.892456 
	C159.874756,259.422668 160.443314,261.456055 161.604355,262.154083 
	C172.113663,268.472321 182.770615,274.544952 193.050339,280.496216 
	C201.664703,268.420898 209.895950,256.882599 218.215912,245.219986 
	C219.903091,246.555191 220.467041,246.917130 220.930115,247.379974 
	C254.870712,281.303741 288.783691,315.255188 322.779846,349.123138 
	C325.096527,351.431091 325.194214,353.164154 323.596344,355.968811 
	C312.162292,376.038147 308.808105,397.489166 313.580017,420.071472 
	C322.778473,463.601898 363.356689,494.553162 408.890076,491.250092 
	C463.933167,487.257080 503.574799,433.678986 490.259094,380.359375 
	C475.395660,320.842255 411.053284,292.711273 357.356354,322.375366 
	C354.030060,324.212952 352.213135,323.670502 349.725922,321.173096 
	C316.566223,287.877594 283.311615,254.676590 250.092636,221.440048 
	C248.959793,220.306595 247.952469,219.047714 246.634247,217.563049 
	C279.447540,189.995529 316.416321,172.406616 358.865082,164.338791 
M497.310547,343.276276 
	C501.297607,352.390106 506.319275,361.203217 509.072906,370.675629 
	C516.581360,396.504272 514.771912,421.935211 503.541931,446.608887 
	C490.109833,476.120880 468.078857,496.776031 437.475708,506.515808 
	C396.831390,519.451294 359.561340,511.742798 327.246918,483.192963 
	C324.411072,480.687500 322.272369,480.379303 319.597076,483.084076 
	C312.568726,490.189972 305.513458,497.270752 298.368347,504.258667 
	C296.233490,506.346619 296.071014,508.163025 298.267975,510.148041 
	C300.861328,512.491089 303.384979,514.924866 306.106934,517.109924 
	C336.122070,541.204651 370.241730,552.677734 408.849609,551.195923 
	C438.349243,550.063660 464.860504,540.584961 488.929871,523.953613 
	C492.844666,521.248535 495.167419,521.516052 498.259247,524.692993 
	C506.276337,532.930603 514.504944,540.962280 522.636597,549.088684 
	C533.125244,559.570679 543.560852,570.106262 554.112671,580.524170 
	C556.691101,583.069885 557.127686,585.068237 553.870483,587.327087 
	C550.868225,589.409119 548.041260,591.742371 545.114563,593.934998 
	C506.157532,623.121643 462.248413,638.551086 413.733154,640.985535 
	C410.051788,641.170288 408.779419,642.251648 408.799164,645.903076 
	C408.916138,667.564453 408.926849,689.226929 408.832336,710.888428 
	C408.817932,714.193481 409.995392,715.199036 413.212189,715.153320 
	C423.540802,715.006531 433.876465,714.963745 444.201874,715.204346 
	C447.716766,715.286316 449.622650,713.996521 451.283417,711.028687 
	C457.781799,699.415955 464.745361,688.057129 471.005890,676.321106 
	C473.121735,672.354614 475.898773,670.414978 479.910187,669.279297 
	C500.644043,663.409302 520.345337,655.067200 539.139832,644.522339 
	C540.699219,643.647339 542.939819,643.386292 544.736206,643.664429 
	C548.004883,644.170593 551.175049,645.305969 554.390808,646.161743 
	C565.632996,649.153259 576.843384,652.279236 588.155457,654.978516 
	C589.946838,655.406006 592.671143,654.445374 594.149658,653.177063 
	C598.178589,649.720886 601.772217,645.757263 605.536987,641.993347 
	C621.659424,625.874207 637.747559,609.720398 653.940430,593.672302 
	C656.320435,591.313538 657.079346,589.247803 656.079834,585.782837 
	C652.669861,573.962097 649.852966,561.971619 646.587830,550.106995 
	C645.257629,545.273254 644.565857,540.269409 638.928101,537.490051 
	C630.585144,533.377014 622.695984,528.333557 614.675781,523.581238 
	C611.656128,521.791931 609.865784,522.195740 607.792969,525.323669 
	C601.732544,534.469055 595.227600,543.319153 588.936218,552.312439 
	C586.762024,555.420471 584.870117,555.935181 581.848633,552.902405 
	C563.410583,534.395203 544.770020,516.089966 526.273132,497.640991 
	C521.508301,492.888458 521.684753,492.551086 526.066833,486.327759 
	C538.927673,468.063202 546.966675,447.734558 550.691284,425.832306 
	C554.892578,401.126709 552.729187,376.736816 544.838745,352.948212 
	C537.922791,332.097687 526.475586,313.891632 511.767944,297.661957 
	C509.550385,295.214905 507.594116,294.837219 505.177856,297.524597 
	C502.621155,300.368164 499.712158,302.891937 497.017059,305.614838 
	C491.679199,311.007874 486.382660,316.441772 481.425537,321.495361 
	C486.936523,328.989166 491.953339,335.810944 497.310547,343.276276 
M392.017426,641.141785 
	C374.308411,640.595825 356.970123,637.771606 339.841522,633.232849 
	C302.073761,623.225220 268.760956,604.950562 240.126160,578.584290 
	C198.796661,540.528992 173.298859,493.700195 164.600815,437.987854 
	C157.873978,394.901245 162.542740,353.064697 178.537323,312.506287 
	C181.195190,305.766602 184.140305,299.140198 187.065887,292.192596 
	C176.695663,286.246948 166.730377,280.572113 156.808762,274.821930 
	C153.748291,273.048218 152.466049,274.987854 151.569916,277.277283 
	C145.394012,293.055176 139.382156,308.898010 133.092346,324.629913 
	C132.144714,327.000122 130.464569,329.629242 128.371338,330.898285 
	C116.561302,338.058167 104.564270,344.914856 92.533066,351.701324 
	C89.133148,353.619141 87.686913,355.873322 87.719040,359.999817 
	C87.930412,387.154175 87.949562,414.312042 87.710777,441.465942 
	C87.671280,445.957977 89.138145,448.435760 92.928024,450.547424 
	C104.847488,457.188873 116.645538,464.053070 128.376144,471.023682 
	C130.211334,472.114166 132.294052,473.968781 132.835464,475.875244 
	C138.956604,497.430023 147.516800,517.934570 158.279739,537.573669 
	C159.337204,539.503174 159.591293,542.416626 159.055984,544.586731 
	C155.670944,558.308716 152.136429,572.001221 148.233810,585.583435 
	C147.198700,589.185913 147.814606,591.349243 150.376495,593.888367 
	C169.778198,613.117920 189.154663,632.376099 208.261627,651.896851 
	C211.590683,655.298035 214.569733,655.787292 218.759445,654.579102 
	C229.945526,651.353394 241.164627,648.223938 252.448990,645.365601 
	C257.386871,644.114929 261.980896,642.264954 267.575531,645.583496 
	C285.544647,656.242065 304.928497,663.846008 325.076019,669.393677 
	C328.740173,670.402588 331.018829,672.432068 332.851349,675.704285 
	C339.519745,687.611511 346.341980,699.435791 353.342834,711.149902 
	C354.366882,712.863342 356.640137,714.882141 358.392517,714.937012 
	C369.543976,715.286621 380.711853,715.076111 391.873383,715.165283 
	C394.724762,715.187988 395.663330,713.935608 395.657410,711.243042 
	C395.609406,689.418640 395.680817,667.593689 395.506165,645.770508 
	C395.493958,644.242432 393.806610,642.727722 392.017426,641.141785 
z"/>
<path fill="#F6F6F6" opacity="1.000000" stroke="none" 
	d="
M1.000000,420.468658 
	C1.602910,424.293671 2.424526,428.569519 2.776546,432.883667 
	C10.351722,525.720215 45.790287,606.477051 109.208046,674.497803 
	C169.252518,738.900452 242.995911,779.181641 329.730560,794.988892 
	C346.537048,798.051880 363.695404,799.183838 380.845734,801.603271 
	C254.406067,802.000000 127.812141,802.000000 1.000000,802.000000 
	C1.000000,674.979187 1.000000,547.958252 1.000000,420.468658 
z"/>
<path fill="#F6F6F6" opacity="1.000000" stroke="none" 
	d="
M380.531342,0.999999 
	C376.871094,1.602144 372.760559,2.417265 368.610596,2.775136 
	C276.556702,10.713344 196.380661,45.950603 128.877075,108.860733 
	C62.599522,170.628250 21.842987,246.595123 6.999959,336.111084 
	C4.448662,351.497589 3.488722,367.147949 1.396838,382.838196 
	C1.000000,255.739792 1.000000,128.479568 1.000000,1.000000 
	C127.354141,1.000000 253.708420,1.000000 380.531342,0.999999 
z"/>
<path fill="#F6F6F6" opacity="1.000000" stroke="none" 
	d="
M420.468658,802.000000 
	C424.963226,801.386292 429.911865,800.594238 434.891937,800.185852 
	C501.820740,794.697205 563.546692,773.764893 619.656006,736.953979 
	C696.095581,686.805115 749.490295,618.365234 779.909485,532.138611 
	C792.320984,496.956757 798.995605,460.584229 801.618774,423.187500 
	C802.000000,549.260681 802.000000,675.521423 802.000000,802.000000 
	C674.979187,802.000000 547.958252,802.000000 420.468658,802.000000 
z"/>
<path fill="#F6F6F6" opacity="1.000000" stroke="none" 
	d="
M802.000000,379.531342 
	C801.388672,375.704254 800.585815,371.425873 800.194092,367.110168 
	C791.657166,273.060760 754.793884,191.791275 689.433105,123.734177 
	C632.159302,64.097740 562.611145,26.050552 481.652649,9.533150 
	C461.523041,5.426249 440.785095,4.300947 420.163391,1.402584 
	C547.260071,1.000000 674.520203,1.000000 802.000000,1.000000 
	C802.000000,127.020813 802.000000,253.041748 802.000000,379.531342 
z"/>
<path fill="#7D7D7D" opacity="1.000000" stroke="none" 
	d="
M415.531342,1.000000 
	C414.505493,1.333249 413.011841,1.948499 411.516327,1.953008 
	C403.139496,1.978265 394.762238,1.856095 386.192566,1.392135 
	C395.687561,1.000000 405.375122,1.000000 415.531342,1.000000 
z"/>
<path fill="#7C7C7C" opacity="1.000000" stroke="none" 
	d="
M386.468628,802.000000 
	C386.819885,801.664612 387.640411,801.037109 388.459625,801.038818 
	C397.489929,801.057678 406.520020,801.174316 415.775085,801.632202 
	C406.312439,802.000000 396.624878,802.000000 386.468628,802.000000 
z"/>
<path fill="#3D3D3D" opacity="1.000000" stroke="none" 
	d="
M802.000000,409.532410 
	C801.787231,404.515778 801.574463,399.031525 801.680847,393.273651 
	C802.000000,398.354919 802.000000,403.709869 802.000000,409.532410 
z"/>
<path fill="#03FC04" opacity="1.000000" stroke="none" 
	d="
M358.448456,164.434143 
	C316.416321,172.406616 279.447540,189.995529 246.634247,217.563049 
	C247.952469,219.047714 248.959793,220.306595 250.092636,221.440048 
	C283.311615,254.676590 316.566223,287.877594 349.725922,321.173096 
	C352.213135,323.670502 354.030060,324.212952 357.356354,322.375366 
	C411.053284,292.711273 475.395660,320.842255 490.259094,380.359375 
	C503.574799,433.678986 463.933167,487.257080 408.890076,491.250092 
	C363.356689,494.553162 322.778473,463.601898 313.580017,420.071472 
	C308.808105,397.489166 312.162292,376.038147 323.596344,355.968811 
	C325.194214,353.164154 325.096527,351.431091 322.779846,349.123138 
	C288.783691,315.255188 254.870712,281.303741 220.930115,247.379974 
	C220.467041,246.917130 219.903091,246.555191 218.215912,245.219986 
	C209.895950,256.882599 201.664703,268.420898 193.050339,280.496216 
	C182.770615,274.544952 172.113663,268.472321 161.604355,262.154083 
	C160.443314,261.456055 159.874756,259.422668 159.457123,257.892456 
	C155.559494,243.611267 151.646240,229.331802 148.062851,214.970673 
	C147.621201,213.200653 148.458649,210.339447 149.756958,209.022934 
	C169.764999,188.734406 189.906418,168.576294 210.186554,148.559845 
	C211.481155,147.282089 214.373718,146.574799 216.170685,147.020905 
	C230.217773,150.508148 244.149139,154.461685 258.195923,157.950333 
	C260.481628,158.518005 263.552185,158.221497 265.596588,157.107269 
	C284.678558,146.707077 304.601410,138.448380 325.429749,132.239502 
	C328.097321,131.444290 330.940216,129.139252 332.398865,126.741096 
	C339.579803,114.935165 346.399231,102.905678 353.162018,90.851746 
	C354.823883,87.889664 356.768158,86.730476 360.237457,86.748947 
	C388.232758,86.897995 416.229370,86.898415 444.224884,86.777710 
	C447.470490,86.763710 449.307739,87.720871 450.914185,90.588486 
	C457.829865,102.933235 464.891998,115.200317 472.181183,127.327171 
	C473.399902,129.354736 475.770111,131.345276 478.005859,132.004639 
	C499.330658,138.293655 519.733337,146.691650 539.179016,157.488190 
	C540.946838,158.469696 543.681580,158.600449 545.704346,158.088013 
	C559.253479,154.655380 572.747925,151.001495 586.221191,147.278351 
	C589.836304,146.279358 592.424438,146.565536 595.367371,149.564056 
	C614.742065,169.304672 634.346252,188.821228 653.995605,208.289780 
	C656.442810,210.714493 656.981201,212.831909 656.036011,216.159378 
	C652.172363,229.760559 648.758667,243.489883 644.862122,257.081085 
	C644.208618,259.360352 642.408875,261.862915 640.417236,263.110077 
	C632.237305,268.232239 623.784302,272.919220 615.417114,277.740875 
	C613.868103,278.633545 612.251587,279.409088 611.164124,279.978088 
	C550.463318,189.307907 467.627838,148.576279 358.448456,164.434143 
z"/>
<path fill="#0101F7" opacity="1.000000" stroke="none" 
	d="
M497.140320,342.954529 
	C491.953339,335.810944 486.936523,328.989166 481.425537,321.495361 
	C486.382660,316.441772 491.679199,311.007874 497.017059,305.614838 
	C499.712158,302.891937 502.621155,300.368164 505.177856,297.524597 
	C507.594116,294.837219 509.550385,295.214905 511.767944,297.661957 
	C526.475586,313.891632 537.922791,332.097687 544.838745,352.948212 
	C552.729187,376.736816 554.892578,401.126709 550.691284,425.832306 
	C546.966675,447.734558 538.927673,468.063202 526.066833,486.327759 
	C521.684753,492.551086 521.508301,492.888458 526.273132,497.640991 
	C544.770020,516.089966 563.410583,534.395203 581.848633,552.902405 
	C584.870117,555.935181 586.762024,555.420471 588.936218,552.312439 
	C595.227600,543.319153 601.732544,534.469055 607.792969,525.323669 
	C609.865784,522.195740 611.656128,521.791931 614.675781,523.581238 
	C622.695984,528.333557 630.585144,533.377014 638.928101,537.490051 
	C644.565857,540.269409 645.257629,545.273254 646.587830,550.106995 
	C649.852966,561.971619 652.669861,573.962097 656.079834,585.782837 
	C657.079346,589.247803 656.320435,591.313538 653.940430,593.672302 
	C637.747559,609.720398 621.659424,625.874207 605.536987,641.993347 
	C601.772217,645.757263 598.178589,649.720886 594.149658,653.177063 
	C592.671143,654.445374 589.946838,655.406006 588.155457,654.978516 
	C576.843384,652.279236 565.632996,649.153259 554.390808,646.161743 
	C551.175049,645.305969 548.004883,644.170593 544.736206,643.664429 
	C542.939819,643.386292 540.699219,643.647339 539.139832,644.522339 
	C520.345337,655.067200 500.644043,663.409302 479.910187,669.279297 
	C475.898773,670.414978 473.121735,672.354614 471.005890,676.321106 
	C464.745361,688.057129 457.781799,699.415955 451.283417,711.028687 
	C449.622650,713.996521 447.716766,715.286316 444.201874,715.204346 
	C433.876465,714.963745 423.540802,715.006531 413.212189,715.153320 
	C409.995392,715.199036 408.817932,714.193481 408.832336,710.888428 
	C408.926849,689.226929 408.916138,667.564453 408.799164,645.903076 
	C408.779419,642.251648 410.051788,641.170288 413.733154,640.985535 
	C462.248413,638.551086 506.157532,623.121643 545.114563,593.934998 
	C548.041260,591.742371 550.868225,589.409119 553.870483,587.327087 
	C557.127686,585.068237 556.691101,583.069885 554.112671,580.524170 
	C543.560852,570.106262 533.125244,559.570679 522.636597,549.088684 
	C514.504944,540.962280 506.276337,532.930603 498.259247,524.692993 
	C495.167419,521.516052 492.844666,521.248535 488.929871,523.953613 
	C464.860504,540.584961 438.349243,550.063660 408.849609,551.195923 
	C370.241730,552.677734 336.122070,541.204651 306.106934,517.109924 
	C303.384979,514.924866 300.861328,512.491089 298.267975,510.148041 
	C296.071014,508.163025 296.233490,506.346619 298.368347,504.258667 
	C305.513458,497.270752 312.568726,490.189972 319.597076,483.084076 
	C322.272369,480.379303 324.411072,480.687500 327.246918,483.192963 
	C359.561340,511.742798 396.831390,519.451294 437.475708,506.515808 
	C468.078857,496.776031 490.109833,476.120880 503.541931,446.608887 
	C514.771912,421.935211 516.581360,396.504272 509.072906,370.675629 
	C506.319275,361.203217 501.297607,352.390106 497.140320,342.954529 
z"/>
<path fill="#F90202" opacity="1.000000" stroke="none" 
	d="
M392.457825,641.174316 
	C393.806610,642.727722 395.493958,644.242432 395.506165,645.770508 
	C395.680817,667.593689 395.609406,689.418640 395.657410,711.243042 
	C395.663330,713.935608 394.724762,715.187988 391.873383,715.165283 
	C380.711853,715.076111 369.543976,715.286621 358.392517,714.937012 
	C356.640137,714.882141 354.366882,712.863342 353.342834,711.149902 
	C346.341980,699.435791 339.519745,687.611511 332.851349,675.704285 
	C331.018829,672.432068 328.740173,670.402588 325.076019,669.393677 
	C304.928497,663.846008 285.544647,656.242065 267.575531,645.583496 
	C261.980896,642.264954 257.386871,644.114929 252.448990,645.365601 
	C241.164627,648.223938 229.945526,651.353394 218.759445,654.579102 
	C214.569733,655.787292 211.590683,655.298035 208.261627,651.896851 
	C189.154663,632.376099 169.778198,613.117920 150.376495,593.888367 
	C147.814606,591.349243 147.198700,589.185913 148.233810,585.583435 
	C152.136429,572.001221 155.670944,558.308716 159.055984,544.586731 
	C159.591293,542.416626 159.337204,539.503174 158.279739,537.573669 
	C147.516800,517.934570 138.956604,497.430023 132.835464,475.875244 
	C132.294052,473.968781 130.211334,472.114166 128.376144,471.023682 
	C116.645538,464.053070 104.847488,457.188873 92.928024,450.547424 
	C89.138145,448.435760 87.671280,445.957977 87.710777,441.465942 
	C87.949562,414.312042 87.930412,387.154175 87.719040,359.999817 
	C87.686913,355.873322 89.133148,353.619141 92.533066,351.701324 
	C104.564270,344.914856 116.561302,338.058167 128.371338,330.898285 
	C130.464569,329.629242 132.144714,327.000122 133.092346,324.629913 
	C139.382156,308.898010 145.394012,293.055176 151.569916,277.277283 
	C152.466049,274.987854 153.748291,273.048218 156.808762,274.821930 
	C166.730377,280.572113 176.695663,286.246948 187.065887,292.192596 
	C184.140305,299.140198 181.195190,305.766602 178.537323,312.506287 
	C162.542740,353.064697 157.873978,394.901245 164.600815,437.987854 
	C173.298859,493.700195 198.796661,540.528992 240.126160,578.584290 
	C268.760956,604.950562 302.073761,623.225220 339.841522,633.232849 
	C356.970123,637.771606 374.308411,640.595825 392.457825,641.174316 
z"/>
</svg>